<svg t="1685084702856" class="icon" viewBox="0 0 1024 1024" version="1.1" xmlns="http://www.w3.org/2000/svg" p-id="968" width="200" height="200"><path d="M475.7504 741.5808H374.784c-40.7552 0-73.728-32.9728-73.728-73.728V393.216c0-40.7552 32.9728-73.728 73.728-73.728h274.8416c40.7552 0 73.728 32.9728 73.728 73.728v274.8416c0 40.7552-32.9728 73.728-73.728 73.728h-173.8752z" fill="#C9C9C9" p-id="969"></path><path d="M341.8112 602.5216c-5.7344 0-10.24-4.5056-10.24-10.24v-25.3952c0-5.7344 4.5056-10.24 10.24-10.24s10.24 4.5056 10.24 10.24v25.3952c0 5.7344-4.5056 10.24-10.24 10.24zM590.0288 710.8608H374.5792c-23.7568 0-43.008-19.2512-43.008-43.008v-34.4064c0-5.7344 4.5056-10.24 10.24-10.24s10.24 4.5056 10.24 10.24v34.4064c0 12.4928 10.0352 22.528 22.528 22.528h215.4496c5.7344 0 10.24 4.5056 10.24 10.24s-4.7104 10.24-10.24 10.24z" fill="#F9F9F9" p-id="970"></path><path d="M713.9328 703.6928c5.9392-10.6496 9.216-22.7328 9.216-35.6352v-183.0912c-15.5648 11.8784-27.8528 27.8528-34.6112 46.6944-33.1776 13.1072-56.7296 45.4656-56.7296 83.1488 0 46.6944 36.2496 85.1968 82.1248 88.8832zM649.4208 319.488H374.784c-40.7552 0-73.728 32.9728-73.728 73.728v18.0224c8.6016 3.2768 18.0224 5.12 27.8528 5.12 9.4208 0 18.6368-1.6384 27.4432-4.9152 8.6016 3.2768 18.0224 4.9152 27.4432 4.9152 16.9984 0 32.768-5.5296 45.6704-14.7456l26.4192 37.888c12.9024 18.432 33.9968 29.4912 56.5248 29.4912s43.6224-11.0592 56.5248-29.4912l26.4192-37.888c12.9024 9.216 28.672 14.7456 45.6704 14.7456 9.4208 0 18.6368-1.6384 27.4432-4.9152 8.6016 3.2768 18.0224 4.9152 27.4432 4.9152 9.8304 0 19.2512-1.8432 27.8528-5.12V393.216c-0.6144-40.7552-33.5872-73.728-74.3424-73.728z" fill="#A0A0A0" p-id="971"></path><path d="M548.2496 1013.76v-54.272h259.072l-45.056-72.704H548.2496V656.384c43.008-12.4928 77.0048-46.2848 89.4976-89.4976h85.4016v-72.704h-85.4016c-12.4928-43.008-46.2848-77.0048-89.4976-89.4976V319.488h-72.704v85.4016c-43.008 12.4928-77.0048 46.2848-89.4976 89.4976h-85.4016v72.704h85.4016c12.4928 43.008 46.2848 77.0048 89.4976 89.4976V886.784h-217.088l-44.032 72.704h261.12V1013.76" fill="#7A7979" p-id="972"></path><path d="M723.1488 566.8864v-72.704h-10.8544c-10.4448 10.4448-18.6368 23.1424-23.7568 37.2736-17.8176 6.9632-32.768 19.456-42.8032 35.4304h77.4144z" fill="#4C4C4C" p-id="973"></path><path d="M649.4208 751.8208h-23.1424c-5.7344 0-10.24-4.5056-10.24-10.24s4.5056-10.24 10.24-10.24h23.1424c35.0208 0 63.488-28.4672 63.488-63.488V393.216c0-35.0208-28.4672-63.488-63.488-63.488H374.5792c-35.0208 0-63.488 28.4672-63.488 63.488v274.8416c0 35.0208 28.4672 63.488 63.488 63.488h23.1424c5.7344 0 10.24 4.5056 10.24 10.24s-4.5056 10.24-10.24 10.24h-23.1424c-46.2848 0-83.968-37.6832-83.968-83.968V393.216c0-46.2848 37.6832-83.968 83.968-83.968h274.8416c46.2848 0 83.968 37.6832 83.968 83.968v274.8416c0 46.2848-37.6832 83.7632-83.968 83.7632z" fill="#231F20" p-id="974"></path><path d="M559.3088 530.6368c0 26.0096-21.0944 47.3088-47.3088 47.3088-26.0096 0-47.3088-21.0944-47.3088-47.3088 0-26.0096 21.0944-47.3088 47.3088-47.3088 26.0096 0 47.3088 21.0944 47.3088 47.3088z" fill="#71CCFF" p-id="975"></path><path d="M723.5584 886.784c3.4816 18.6368 10.6496 36.6592 21.9136 52.8384l13.7216 19.6608h48.3328L762.2656 886.784h-38.7072zM278.528 939.6224c11.264-16.1792 18.6368-34.2016 21.9136-52.8384h-41.984l-44.032 72.704h50.176l13.9264-19.8656z" fill="#4C4C4C" p-id="976"></path><path d="M512 587.9808c-31.744 0-57.5488-25.8048-57.5488-57.5488s25.8048-57.344 57.5488-57.344 57.5488 25.8048 57.5488 57.5488-25.8048 57.344-57.5488 57.344z m0-94.4128c-20.48 0-37.0688 16.5888-37.0688 37.0688s16.5888 37.0688 37.0688 37.0688 37.0688-16.5888 37.0688-37.0688c0-20.48-16.5888-37.0688-37.0688-37.0688z" fill="#231F20" p-id="977"></path><path d="M548.2496 1024c-5.7344 0-10.24-4.5056-10.24-10.24v-54.272c0-5.7344 4.5056-10.24 10.24-10.24h240.64L756.5312 897.024H548.2496c-5.7344 0-10.24-4.5056-10.24-10.24V656.384c0-4.5056 3.072-8.6016 7.3728-9.8304 39.5264-11.4688 71.0656-43.008 82.3296-82.3296 1.2288-4.3008 5.3248-7.3728 9.8304-7.3728H712.704v-52.224h-75.1616c-4.5056 0-8.6016-3.072-9.8304-7.3728-11.4688-39.5264-43.008-71.0656-82.3296-82.3296-4.3008-1.2288-7.3728-5.3248-7.3728-9.8304V329.728h-52.224v75.1616c0 4.5056-3.072 8.6016-7.3728 9.8304-39.5264 11.4688-71.0656 43.008-82.3296 82.3296-1.2288 4.3008-5.3248 7.3728-9.8304 7.3728h-75.1616v52.224h75.1616c4.5056 0 8.6016 3.072 9.8304 7.3728 11.4688 39.5264 43.008 71.0656 82.3296 82.3296 4.3008 1.2288 7.3728 5.3248 7.3728 9.8304V886.784c0 5.7344-4.5056 10.24-10.24 10.24H264.3968l-31.5392 52.224h242.8928c5.7344 0 10.24 4.5056 10.24 10.24V1013.76c0 5.7344-4.5056 10.24-10.24 10.24s-10.24-4.5056-10.24-10.24v-44.032H214.6304c-3.6864 0-7.168-2.048-9.0112-5.12-1.8432-3.2768-1.8432-7.168 0.2048-10.24l44.032-72.704c1.8432-3.072 5.12-4.9152 8.8064-4.9152h206.848v-212.992c-40.1408-14.1312-72.4992-46.4896-86.6304-86.6304h-77.824c-5.7344 0-10.24-4.5056-10.24-10.24v-72.704c0-5.7344 4.5056-10.24 10.24-10.24h77.824c14.1312-40.1408 46.4896-72.4992 86.6304-86.6304v-77.824c0-5.7344 4.5056-10.24 10.24-10.24h72.704c5.7344 0 10.24 4.5056 10.24 10.24v77.824c40.1408 14.1312 72.4992 46.4896 86.6304 86.6304h77.824c5.7344 0 10.24 4.5056 10.24 10.24v72.704c0 5.7344-4.5056 10.24-10.24 10.24h-77.824c-14.1312 40.1408-46.4896 72.4992-86.6304 86.6304V876.544h203.5712c3.4816 0 6.7584 1.8432 8.6016 4.9152l45.2608 72.704c2.048 3.072 2.048 7.168 0.2048 10.4448-1.8432 3.2768-5.3248 5.3248-9.0112 5.3248H558.4896V1013.76c0 5.7344-4.5056 10.24-10.24 10.24z" fill="#231F20" p-id="978"></path><path d="M516.7104 10.24h-9.4208c-126.5664 3.2768-197.632 147.6608-125.5424 251.4944l107.3152 154.4192c11.0592 15.9744 34.6112 15.9744 45.6704 0l107.3152-154.4192c72.2944-103.8336 1.2288-248.2176-125.3376-251.4944zM512 238.592c-38.7072 0-70.2464-31.3344-70.2464-70.2464 0-38.7072 31.3344-70.2464 70.2464-70.2464s70.2464 31.3344 70.2464 70.2464c0 38.912-31.5392 70.2464-70.2464 70.2464z" fill="#F9B630" p-id="979"></path><path d="M438.6816 204.8c0-38.2976-24.1664-71.0656-58.1632-83.7632-3.4816-6.5536-7.7824-12.4928-12.9024-17.6128-22.1184 48.5376-20.6848 108.1344 14.336 158.5152l13.5168 19.456c25.8048-15.7696 43.2128-44.2368 43.2128-76.5952z" fill="#D88A0E" p-id="980"></path><path d="M512 438.4768c-12.4928 0-24.1664-6.144-31.3344-16.384l-107.3152-154.4192c-36.4544-52.4288-40.96-117.9648-11.8784-175.3088C389.9392 36.2496 444.416 1.6384 507.0848 0h9.8304c62.6688 1.6384 116.9408 36.2496 145.6128 92.3648 29.0816 57.1392 24.576 122.6752-11.8784 175.3088l-107.3152 154.4192c-7.168 10.24-18.8416 16.384-31.3344 16.384zM512 20.48h-4.5056c-54.8864 1.4336-102.8096 31.744-127.7952 81.3056-25.6 50.3808-21.7088 108.1344 10.4448 154.2144l107.3152 154.4192c3.2768 4.7104 8.6016 7.5776 14.5408 7.5776s11.0592-2.6624 14.5408-7.5776l107.3152-154.4192c32.1536-46.2848 36.0448-103.8336 10.4448-154.2144-24.9856-49.3568-72.9088-79.872-127.7952-81.3056H512z" fill="#231F20" p-id="981"></path><path d="M501.1456 61.8496c-5.3248 0-9.8304-4.096-10.24-9.4208-0.4096-5.7344 3.6864-10.6496 9.4208-11.0592 2.4576-0.2048 5.12-0.4096 7.7824-0.4096 5.7344-0.2048 10.4448 4.3008 10.4448 10.0352s-4.3008 10.4448-10.0352 10.4448c-2.2528 0-4.3008 0.2048-6.5536 0.4096h-0.8192zM410.8288 118.9888c-1.8432 0-3.4816-0.4096-5.12-1.4336-4.9152-2.8672-6.5536-9.216-3.6864-13.9264 14.336-24.3712 35.2256-42.5984 60.6208-53.0432 5.3248-2.2528 11.264 0.4096 13.312 5.5296 2.2528 5.3248-0.4096 11.264-5.5296 13.312-21.2992 8.8064-38.912 24.1664-50.7904 44.6464-1.8432 3.072-5.3248 4.9152-8.8064 4.9152z" fill="#FFEDCC" p-id="982"></path><path d="M512 248.832c-44.4416 0-80.4864-36.0448-80.4864-80.4864 0-44.4416 36.0448-80.4864 80.4864-80.4864s80.4864 36.0448 80.4864 80.4864c0 44.4416-36.0448 80.4864-80.4864 80.4864z m0-140.288c-32.9728 0-60.0064 26.8288-60.0064 60.0064 0 32.9728 26.8288 60.0064 60.0064 60.0064s60.0064-26.8288 60.0064-60.0064c0-33.1776-27.0336-60.0064-60.0064-60.0064z" fill="#231F20" p-id="983"></path><path d="M703.2832 301.8752c1.2288-3.6864 1.8432-7.3728 1.8432-11.4688 0-20.6848-16.7936-37.2736-37.2736-37.2736-20.6848 0-37.2736 16.7936-37.2736 37.2736 0 4.096 0.6144 7.7824 1.8432 11.4688-16.5888 3.6864-29.0816 18.6368-29.0816 36.4544 0 20.6848 16.7936 37.2736 37.2736 37.2736 10.8544 0 20.48-4.7104 27.4432-11.8784 6.7584 7.3728 16.5888 11.8784 27.4432 11.8784 20.6848 0 37.2736-16.7936 37.2736-37.2736-0.2048-17.8176-12.6976-32.768-29.4912-36.4544z" fill="#08B26C" p-id="984"></path><path d="M695.296 385.8432c-9.8304 0-19.456-3.072-27.4432-8.6016-7.9872 5.5296-17.6128 8.6016-27.4432 8.6016-26.2144 0-47.5136-21.2992-47.5136-47.5136 0-18.6368 11.0592-35.4304 27.648-43.2128-0.2048-1.6384-0.2048-3.072-0.2048-4.7104 0-26.2144 21.2992-47.5136 47.5136-47.5136s47.5136 21.2992 47.5136 47.5136c0 1.6384 0 3.072-0.2048 4.7104 16.384 7.5776 27.648 24.576 27.648 43.2128 0 26.0096-21.504 47.5136-47.5136 47.5136z m-27.4432-32.5632c2.8672 0 5.5296 1.2288 7.5776 3.2768 5.12 5.5296 12.288 8.6016 19.8656 8.6016 14.9504 0 27.0336-12.0832 27.0336-27.0336 0-12.4928-8.8064-23.7568-21.0944-26.4192-2.8672-0.6144-5.3248-2.4576-6.7584-4.9152-1.4336-2.4576-1.8432-5.5296-0.8192-8.192 0.8192-2.6624 1.2288-5.5296 1.2288-8.3968 0-14.9504-12.0832-27.0336-27.0336-27.0336s-27.0336 12.0832-27.0336 27.0336c0 2.8672 0.4096 5.5296 1.2288 8.3968 0.8192 2.6624 0.6144 5.7344-0.8192 8.192-1.4336 2.4576-3.8912 4.3008-6.7584 4.9152-12.288 2.6624-21.0944 13.9264-21.0944 26.4192 0 14.9504 12.0832 27.0336 27.0336 27.0336 7.5776 0 14.7456-3.072 19.8656-8.6016 2.048-2.048 4.7104-3.2768 7.5776-3.2768z" fill="#231F20" p-id="985"></path><path d="M667.8528 504.4224c-5.7344 0-10.24-4.5056-10.24-10.24v-130.6624c0-5.7344 4.5056-10.24 10.24-10.24s10.24 4.5056 10.24 10.24v130.6624c0 5.5296-4.5056 10.24-10.24 10.24z" fill="#231F20" p-id="986"></path><path d="M391.5776 301.8752c1.2288-3.6864 1.8432-7.3728 1.8432-11.4688 0-20.6848-16.7936-37.2736-37.2736-37.2736-20.6848 0-37.2736 16.7936-37.2736 37.2736 0 4.096 0.6144 7.7824 1.8432 11.4688-16.5888 3.6864-29.0816 18.6368-29.0816 36.4544 0 20.6848 16.7936 37.2736 37.2736 37.2736 10.8544 0 20.48-4.7104 27.4432-11.8784 6.7584 7.3728 16.5888 11.8784 27.4432 11.8784 20.6848 0 37.2736-16.7936 37.2736-37.2736-0.2048-17.8176-12.6976-32.768-29.4912-36.4544z" fill="#08B26C" p-id="987"></path><path d="M383.5904 385.8432c-9.8304 0-19.456-3.072-27.4432-8.6016-7.9872 5.5296-17.6128 8.6016-27.4432 8.6016-26.2144 0-47.5136-21.2992-47.5136-47.5136 0-18.6368 11.0592-35.4304 27.648-43.2128-0.2048-1.6384-0.2048-3.072-0.2048-4.7104 0-26.2144 21.2992-47.5136 47.5136-47.5136s47.5136 21.2992 47.5136 47.5136c0 1.6384 0 3.072-0.2048 4.7104 16.384 7.5776 27.648 24.576 27.648 43.2128 0 26.0096-21.2992 47.5136-47.5136 47.5136z m-27.4432-32.5632c2.8672 0 5.5296 1.2288 7.5776 3.2768 5.12 5.5296 12.288 8.6016 19.8656 8.6016 14.9504 0 27.0336-12.0832 27.0336-27.0336 0-12.4928-8.8064-23.7568-21.0944-26.4192-2.8672-0.6144-5.3248-2.4576-6.7584-4.9152-1.4336-2.4576-1.8432-5.5296-0.8192-8.192 0.8192-2.6624 1.2288-5.5296 1.2288-8.3968 0-14.9504-12.0832-27.0336-27.0336-27.0336s-27.0336 12.0832-27.0336 27.0336c0 2.8672 0.4096 5.5296 1.2288 8.3968 0.8192 2.6624 0.6144 5.7344-0.8192 8.192-1.4336 2.4576-3.8912 4.3008-6.7584 4.9152-12.288 2.6624-21.0944 13.9264-21.0944 26.4192 0 14.9504 12.0832 27.0336 27.0336 27.0336 7.5776 0 14.7456-3.072 19.8656-8.6016 2.048-2.048 4.7104-3.2768 7.5776-3.2768z" fill="#231F20" p-id="988"></path><path d="M356.1472 504.4224c-5.7344 0-10.24-4.5056-10.24-10.24v-130.6624c0-5.7344 4.5056-10.24 10.24-10.24s10.24 4.5056 10.24 10.24v130.6624c0 5.5296-4.5056 10.24-10.24 10.24z" fill="#231F20" p-id="989"></path><path d="M153.8048 156.4672c-26.624 0-48.3328 21.7088-48.3328 48.3328s21.7088 48.3328 48.3328 48.3328h195.3792c26.624 0 48.3328-21.7088 48.3328-48.3328s-21.7088-48.3328-48.3328-48.3328h-1.024c0-19.456-15.7696-35.0208-35.0208-35.0208s-35.0208 15.7696-35.0208 35.0208c0-33.792-27.2384-61.0304-61.0304-61.0304S156.0576 122.6752 156.0576 156.4672h-2.2528z" fill="#71CCFF" p-id="990"></path><path d="M349.3888 263.3728H153.8048c-32.3584 0-58.5728-26.2144-58.5728-58.5728 0-29.9008 22.3232-54.4768 51.2-58.1632 4.7104-34.6112 34.6112-61.44 70.656-61.44 27.8528 0 52.0192 16.1792 63.6928 39.5264 8.192-8.3968 19.6608-13.5168 32.3584-13.5168 21.7088 0 39.7312 15.36 44.2368 35.6352 28.4672 3.8912 50.3808 28.4672 50.3808 57.9584 0.2048 32.1536-26.2144 58.5728-58.368 58.5728zM153.8048 166.7072c-21.0944 0-38.0928 16.9984-38.0928 38.0928s16.9984 38.0928 38.0928 38.0928h195.3792c21.0944 0 38.0928-16.9984 38.0928-38.0928s-16.9984-38.0928-38.0928-38.0928h-1.024c-5.7344 0-10.24-4.5056-10.24-10.24 0-13.7216-11.0592-24.7808-24.7808-24.7808s-24.7808 11.0592-24.7808 24.7808c0 5.7344-4.5056 10.24-10.24 10.24s-10.24-4.5056-10.24-10.24c0-28.0576-22.7328-50.7904-50.7904-50.7904-28.0576 0-50.7904 22.7328-50.7904 50.7904 0 5.7344-4.5056 10.24-10.24 10.24h-2.2528z" fill="#231F20" p-id="991"></path><path d="M177.5616 204.1856H153.8048c-5.7344 0-10.24-4.5056-10.24-10.24s4.5056-10.24 10.24-10.24h23.7568c3.2768 0 5.9392-2.6624 5.9392-5.9392V157.0816c0-17.6128 13.312-32.5632 30.5152-34.2016 9.4208-0.8192 18.8416 2.2528 25.8048 8.6016 6.9632 6.3488 11.0592 15.36 11.0592 24.9856 0 5.7344-4.5056 10.24-10.24 10.24s-10.24-4.5056-10.24-10.24c0-3.6864-1.6384-7.168-4.3008-9.8304-2.8672-2.4576-6.3488-3.6864-10.24-3.2768-6.7584 0.6144-11.8784 6.7584-11.8784 13.7216v20.8896c0 14.5408-11.8784 26.2144-26.4192 26.2144z" fill="#C0E7F9" p-id="992"></path><path d="M153.8048 263.3728H85.8112c-5.7344 0-10.24-4.5056-10.24-10.24s4.5056-10.24 10.24-10.24h68.1984c5.7344 0 10.24 4.5056 10.24 10.24s-4.7104 10.24-10.4448 10.24zM57.9584 263.3728h-3.4816c-5.7344 0-10.24-4.5056-10.24-10.24s4.5056-10.24 10.24-10.24h3.4816c5.7344 0 10.24 4.5056 10.24 10.24s-4.5056 10.24-10.24 10.24z" fill="#231F20" p-id="993"></path><path d="M721.1008 566.272c-26.624 0-48.3328 21.7088-48.3328 48.3328 0 26.624 21.7088 48.3328 48.3328 48.3328h195.3792c26.624 0 48.3328-21.7088 48.3328-48.3328 0-26.624-21.7088-48.3328-48.3328-48.3328h-1.024c0-19.456-15.7696-35.0208-35.0208-35.0208s-35.0208 15.7696-35.0208 35.0208c0-33.792-27.2384-61.0304-61.0304-61.0304s-61.0304 27.2384-61.0304 61.0304h-2.2528z" fill="#71CCFF" p-id="994"></path><path d="M916.48 673.1776h-195.3792c-32.3584 0-58.5728-26.2144-58.5728-58.5728 0-29.9008 22.3232-54.4768 51.2-58.1632 4.7104-34.6112 34.6112-61.44 70.656-61.44 27.8528 0 52.0192 16.1792 63.6928 39.5264 8.192-8.3968 19.6608-13.5168 32.3584-13.5168 21.7088 0 39.7312 15.36 44.2368 35.6352 28.4672 3.8912 50.3808 28.4672 50.3808 57.9584 0 32.3584-26.2144 58.5728-58.5728 58.5728z m-195.3792-96.6656c-21.0944 0-38.0928 16.9984-38.0928 38.0928s16.9984 38.0928 38.0928 38.0928h195.3792c21.0944 0 38.0928-16.9984 38.0928-38.0928s-16.9984-38.0928-38.0928-38.0928h-1.024c-5.7344 0-10.24-4.5056-10.24-10.24 0-13.7216-11.0592-24.7808-24.7808-24.7808-13.7216 0-24.7808 11.0592-24.7808 24.7808 0 5.7344-4.5056 10.24-10.24 10.24s-10.24-4.5056-10.24-10.24c0-28.0576-22.7328-50.7904-50.7904-50.7904s-50.7904 22.7328-50.7904 50.7904c0 5.7344-4.5056 10.24-10.24 10.24h-2.2528z" fill="#231F20" p-id="995"></path><path d="M744.8576 614.1952h-23.7568c-5.7344 0-10.24-4.5056-10.24-10.24s4.5056-10.24 10.24-10.24h23.7568c3.2768 0 5.9392-2.6624 5.9392-5.9392v-20.8896c0-17.6128 13.312-32.5632 30.5152-34.2016 9.4208-0.8192 18.8416 2.2528 25.8048 8.6016 6.9632 6.3488 11.0592 15.36 11.0592 24.9856 0 5.7344-4.5056 10.24-10.24 10.24s-10.24-4.5056-10.24-10.24c0-3.6864-1.6384-7.168-4.3008-9.8304-2.8672-2.4576-6.3488-3.6864-10.24-3.2768-6.7584 0.6144-11.8784 6.7584-11.8784 13.7216V587.776c-0.2048 14.5408-11.8784 26.4192-26.4192 26.4192z" fill="#C0E7F9" p-id="996"></path><path d="M168.5504 1024H81.5104c-5.7344 0-10.24-4.5056-10.24-10.24s4.5056-10.24 10.24-10.24h87.04c5.7344 0 10.24 4.5056 10.24 10.24s-4.5056 10.24-10.24 10.24zM44.6464 1024h-9.216c-5.7344 0-10.24-4.5056-10.24-10.24s4.5056-10.24 10.24-10.24h9.216c5.7344 0 10.24 4.5056 10.24 10.24s-4.5056 10.24-10.24 10.24zM942.4896 1024h-87.04c-5.7344 0-10.24-4.5056-10.24-10.24s4.5056-10.24 10.24-10.24h87.04c5.7344 0 10.24 4.5056 10.24 10.24s-4.7104 10.24-10.24 10.24zM988.5696 1024h-9.216c-5.7344 0-10.24-4.5056-10.24-10.24s4.5056-10.24 10.24-10.24h9.216c5.7344 0 10.24 4.5056 10.24 10.24s-4.7104 10.24-10.24 10.24zM439.9104 751.8208H434.176c-5.7344 0-10.24-4.5056-10.24-10.24s4.5056-10.24 10.24-10.24h5.7344c5.7344 0 10.24 4.5056 10.24 10.24s-4.7104 10.24-10.24 10.24zM590.0288 751.8208h-5.7344c-5.7344 0-10.24-4.5056-10.24-10.24s4.5056-10.24 10.24-10.24h5.7344c5.7344 0 10.24 4.5056 10.24 10.24s-4.7104 10.24-10.24 10.24z" fill="#231F20" p-id="997"></path><path d="M171.4176 769.024h-5.3248c-74.1376 1.8432-115.712 86.4256-73.5232 147.2512l62.8736 90.5216c6.5536 9.4208 20.2752 9.4208 26.8288 0l62.8736-90.5216c41.984-60.8256 0.4096-145.408-73.728-147.2512z m-2.8672 133.7344c-22.7328 0-41.1648-18.432-41.1648-41.1648 0-22.7328 18.432-41.1648 41.1648-41.1648s41.1648 18.432 41.1648 41.1648c0 22.7328-18.432 41.1648-41.1648 41.1648z" fill="#F9B630" p-id="998"></path><path d="M168.5504 1024c-8.6016 0-16.7936-4.3008-21.7088-11.4688L83.968 922.2144c-22.3232-31.9488-24.9856-72.0896-7.3728-106.9056 17.408-34.4064 50.5856-55.5008 88.8832-56.5248h5.9392c38.2976 1.024 71.4752 22.1184 88.8832 56.5248 17.6128 35.0208 14.9504 74.9568-7.3728 106.9056L190.464 1012.5312c-4.9152 7.168-13.1072 11.4688-21.9136 11.4688z m0-244.736h-2.4576c-30.5152 0.8192-57.1392 17.6128-71.0656 45.2608-14.336 28.0576-12.0832 60.2112 5.9392 86.016L163.84 1001.0624c1.6384 2.2528 4.096 2.6624 4.9152 2.6624s3.2768-0.2048 4.9152-2.6624l62.8736-90.5216c17.8176-25.8048 20.0704-57.9584 5.9392-86.016-13.9264-27.4432-40.5504-44.4416-71.0656-45.2608h-2.8672z" fill="#231F20" p-id="999"></path><path d="M168.5504 912.9984c-28.2624 0-51.4048-22.9376-51.4048-51.4048s22.9376-51.4048 51.4048-51.4048 51.4048 22.9376 51.4048 51.4048-22.9376 51.4048-51.4048 51.4048z m0-82.3296c-16.9984 0-30.9248 13.9264-30.9248 30.9248s13.9264 30.9248 30.9248 30.9248 30.9248-13.9264 30.9248-30.9248-13.7216-30.9248-30.9248-30.9248z" fill="#231F20" p-id="1000"></path><path d="M779.0592 916.2752l62.8736 90.5216c6.5536 9.4208 20.2752 9.4208 26.8288 0l62.8736-90.5216c42.3936-60.8256 0.6144-145.408-73.5232-147.2512h-5.3248c-74.3424 1.8432-115.9168 86.4256-73.728 147.2512z m35.2256-54.6816c0-22.7328 18.432-41.1648 41.1648-41.1648s41.1648 18.432 41.1648 41.1648c0 22.7328-18.432 41.1648-41.1648 41.1648s-41.1648-18.432-41.1648-41.1648z" fill="#F9B630" p-id="1001"></path><path d="M855.4496 1024c-8.6016 0-16.7936-4.3008-21.7088-11.4688l-62.8736-90.5216c-22.3232-31.9488-24.9856-72.0896-7.3728-106.9056 17.408-34.4064 50.5856-55.5008 88.8832-56.5248h5.9392c38.2976 1.024 71.4752 22.1184 88.8832 56.5248 17.6128 35.0208 14.9504 74.9568-7.3728 106.9056l-62.8736 90.5216c-4.7104 7.168-12.9024 11.4688-21.504 11.4688z m-67.9936-113.4592l62.8736 90.5216c1.6384 2.2528 4.096 2.6624 4.9152 2.6624 1.024 0 3.2768-0.2048 4.9152-2.6624l62.8736-90.5216c17.8176-25.8048 20.0704-57.9584 5.9392-86.016-13.9264-27.4432-40.5504-44.4416-71.0656-45.2608h-4.9152c-30.5152 0.8192-57.1392 17.6128-71.0656 45.2608-14.5408 28.0576-12.288 60.2112 5.5296 86.016z" fill="#231F20" p-id="1002"></path><path d="M855.4496 912.9984c-28.2624 0-51.4048-22.9376-51.4048-51.4048s22.9376-51.4048 51.4048-51.4048 51.4048 22.9376 51.4048 51.4048-23.1424 51.4048-51.4048 51.4048z m0-82.3296c-16.9984 0-30.9248 13.9264-30.9248 30.9248s13.9264 30.9248 30.9248 30.9248 30.9248-13.9264 30.9248-30.9248-13.9264-30.9248-30.9248-30.9248z" fill="#231F20" p-id="1003"></path></svg>
